<svg width="220" height="220" viewBox="0 0 220 220" fill="none" xmlns="http://www.w3.org/2000/svg">
<path d="M206.535 162.736C197.086 180.032 183.164 194.471 166.225 204.545C149.286 214.618 129.951 219.956 110.243 220L110 110L206.535 162.736Z" fill="#333333"/>
<path d="M220 110C220 128.63 215.268 146.954 206.249 163.255L110 110H220Z" fill="#C1A67A"/>
<path d="M110 220C95.5546 220 81.2506 217.155 67.9048 211.627C54.559 206.099 42.4327 197.996 32.2182 187.782L110 110L110 220Z" fill="#F5D6AB"/>
<path d="M32.2183 187.782C16.872 172.436 6.40829 152.893 2.14412 131.613C-2.12004 110.333 0.00591539 88.2672 8.25441 68.1929L110 110L32.2183 187.782Z" fill="#8B4136"/>
<path d="M220 110C220 84.4393 211.098 59.6764 194.825 39.9657C178.551 20.255 155.92 6.82703 130.822 1.98865C105.723 -2.84972 79.7231 1.20359 57.2882 13.4522C34.8534 25.7009 17.3845 45.3802 7.88271 69.1092L110 110H220Z" fill="#C66C49"/>
</svg>
